<svg width="current" height="current" viewBox="0 0 60 60" fill="none" xmlns="http://www.w3.org/2000/svg">
<path d="M30.5 30C30.5 30.2741 30.275 30.6704 29.5215 31.1302C28.7972 31.5721 27.7157 31.988 26.3352 32.3443C23.5817 33.0549 19.7507 33.5 15.5 33.5C11.2493 33.5 7.41829 33.0549 4.66478 32.3443C3.28427 31.988 2.20284 31.5721 1.47849 31.1302C0.724997 30.6704 0.5 30.2741 0.5 30C0.5 29.7259 0.724997 29.3296 1.47849 28.8698C2.20284 28.4279 3.28427 28.012 4.66478 27.6557C7.41829 26.9451 11.2493 26.5 15.5 26.5C19.7507 26.5 23.5817 26.9451 26.3352 27.6557C27.7157 28.012 28.7972 28.4279 29.5215 28.8698C30.275 29.3296 30.5 29.7259 30.5 30Z" stroke="current"/>
<path d="M29.9385 30.5474C29.8414 30.8037 29.4906 31.0946 28.6231 31.2575C27.7891 31.4141 26.6305 31.4199 25.2133 31.2639C22.3867 30.9527 18.6465 30.0116 14.6716 28.5054C10.6967 26.9993 7.27189 25.2256 4.94881 23.5855C3.78409 22.7632 2.92019 21.9911 2.39943 21.3212C1.85771 20.6243 1.78772 20.174 1.88486 19.9177C1.98199 19.6613 2.33281 19.3704 3.20031 19.2075C4.03426 19.0509 5.1929 19.0451 6.61008 19.2011C9.43672 19.5123 13.1769 20.4535 17.1518 21.9596C21.1267 23.4657 24.5515 25.2394 26.8746 26.8795C28.0393 27.7018 28.9032 28.4739 29.424 29.1438C29.9657 29.8407 30.0357 30.291 29.9385 30.5474Z" stroke="current"/>
<path d="M30.3318 30.1545C30.1608 30.3687 29.7377 30.5381 28.862 30.4273C28.0202 30.3207 26.9156 29.9711 25.6144 29.3883C23.0192 28.2257 19.7474 26.1835 16.4255 23.5316C13.1035 20.8796 10.3872 18.1416 8.67858 15.8685C7.82195 14.7288 7.23628 13.729 6.94591 12.9317C6.64386 12.1023 6.71525 11.6523 6.88629 11.438C7.05732 11.2238 7.48039 11.0544 8.35608 11.1652C9.1979 11.2718 10.3025 11.6214 11.6037 12.2042C14.1989 13.3668 17.4707 15.409 20.7926 18.0609C24.1146 20.7129 26.8309 23.4509 28.5395 25.7241C29.3962 26.8638 29.9818 27.8635 30.2722 28.6608C30.5743 29.4902 30.5029 29.9402 30.3318 30.1545Z" stroke="current"/>
<path d="M30.2849 29.9456C30.064 30.108 29.6115 30.1614 28.7948 29.8264C28.0097 29.5045 27.0342 28.8794 25.9296 27.9779C23.7264 26.1799 21.099 23.3565 18.5818 19.9313C16.0646 16.5061 14.1546 13.1555 13.0966 10.5159C12.5662 9.1925 12.2609 8.07478 12.1881 7.22938C12.1123 6.34997 12.2984 5.934 12.5193 5.77165C12.7402 5.60931 13.1928 5.55594 14.0094 5.89085C14.7945 6.21282 15.7701 6.83793 16.8747 7.73937C19.0778 9.53735 21.7052 12.3608 24.2224 15.786C26.7396 19.2112 28.6496 22.5618 29.7076 25.2014C30.2381 26.5248 30.5433 27.6425 30.6162 28.4879C30.6919 29.3673 30.5058 29.7833 30.2849 29.9456Z" stroke="current"/>
<path d="M30.0102 30.4589C29.7461 30.5322 29.304 30.4214 28.6596 29.8183C28.04 29.2385 27.3501 28.3077 26.6376 27.0727C25.2166 24.6095 23.7632 21.037 22.6266 16.9411C21.4899 12.8452 20.8944 9.03466 20.8428 6.19141C20.8169 4.7659 20.9285 3.61263 21.1607 2.79648C21.4022 1.94749 21.7239 1.62472 21.988 1.55142C22.2522 1.47811 22.6942 1.58894 23.3387 2.19206C23.9582 2.77185 24.6482 3.70268 25.3606 4.93766C26.7817 7.40088 28.235 10.9734 29.3717 15.0693C30.5083 19.1651 31.1038 22.9757 31.1554 25.8189C31.1813 27.2444 31.0697 28.3977 30.8376 29.2139C30.5961 30.0629 30.2744 30.3856 30.0102 30.4589Z" stroke="current"/>
<path d="M30 30.5C29.7259 30.5 29.3296 30.275 28.8698 29.5215C28.4279 28.7972 28.012 27.7157 27.6557 26.3352C26.9451 23.5817 26.5 19.7507 26.5 15.5C26.5 11.2493 26.9451 7.41829 27.6557 4.66478C28.012 3.28427 28.4279 2.20284 28.8698 1.47849C29.3296 0.724997 29.7259 0.5 30 0.5C30.2741 0.5 30.6704 0.724997 31.1302 1.47849C31.5721 2.20284 31.988 3.28427 32.3443 4.66478C33.0549 7.41829 33.5 11.2493 33.5 15.5C33.5 19.7507 33.0549 23.5817 32.3443 26.3352C31.988 27.7157 31.5721 28.7972 31.1302 29.5215C30.6704 30.275 30.2741 30.5 30 30.5Z" stroke="current"/>
<path d="M28.9177 29.9385C28.6613 29.8414 28.3705 29.4906 28.2075 28.6231C28.0509 27.7891 28.0452 26.6305 28.2012 25.2133C28.5123 22.3867 29.4535 18.6465 30.9596 14.6716C32.4657 10.6967 34.2394 7.27189 35.8795 4.94881C36.7018 3.78409 37.4739 2.92019 38.1439 2.39942C38.8407 1.85771 39.291 1.78772 39.5474 1.88486C39.8037 1.98199 40.0946 2.33281 40.2575 3.20031C40.4141 4.03426 40.4199 5.1929 40.2639 6.61008C39.9528 9.43672 39.0116 13.1769 37.5055 17.1518C35.9993 21.1267 34.2257 24.5515 32.5855 26.8746C31.7632 28.0393 30.9911 28.9032 30.3212 29.424C29.6243 29.9657 29.174 30.0357 28.9177 29.9385Z" stroke="current"/>
<path d="M29.3105 30.3318C29.0963 30.1608 28.927 29.7377 29.0378 28.862C29.1443 28.0202 29.4939 26.9156 30.0768 25.6144C31.2393 23.0192 33.2816 19.7474 35.9335 16.4255C38.5854 13.1035 41.3234 10.3872 43.5966 8.67858C44.7363 7.82195 45.736 7.23628 46.5333 6.94591C47.3627 6.64386 47.8128 6.71525 48.027 6.88629C48.2413 7.05732 48.4106 7.48039 48.2998 8.35608C48.1933 9.1979 47.8436 10.3025 47.2608 11.6037C46.0983 14.1989 44.056 17.4707 41.4041 20.7926C38.7522 24.1146 36.0142 26.8309 33.741 28.5395C32.6013 29.3962 31.6016 29.9818 30.8042 30.2722C29.9749 30.5743 29.5248 30.5029 29.3105 30.3318Z" stroke="current"/>
<path d="M29.5194 30.2849C29.3571 30.064 29.3037 29.6115 29.6386 28.7948C29.9606 28.0097 30.5857 27.0342 31.4871 25.9296C33.2851 23.7264 36.1085 21.099 39.5337 18.5818C42.9589 16.0646 46.3096 14.1546 48.9491 13.0966C50.2725 12.5662 51.3903 12.2609 52.2357 12.1881C53.1151 12.1123 53.531 12.2984 53.6934 12.5193C53.8557 12.7402 53.9091 13.1928 53.5742 14.0094C53.2522 14.7945 52.6271 15.7701 51.7257 16.8747C49.9277 19.0778 47.1042 21.7052 43.6791 24.2224C40.2539 26.7396 36.9032 28.6496 34.2636 29.7076C32.9403 30.2381 31.8225 30.5433 30.9771 30.6162C30.0977 30.6919 29.6817 30.5058 29.5194 30.2849Z" stroke="current"/>
<path d="M29.0061 30.0102C28.9328 29.7461 29.0436 29.304 29.6468 28.6596C30.2265 28.04 31.1574 27.3501 32.3923 26.6376C34.8556 25.2166 38.4281 23.7632 42.5239 22.6266C46.6198 21.4899 50.4304 20.8944 53.2736 20.8428C54.6991 20.8169 55.8524 20.9285 56.6686 21.1607C57.5175 21.4022 57.8403 21.7239 57.9136 21.988C57.9869 22.2522 57.8761 22.6942 57.273 23.3387C56.6932 23.9583 55.7624 24.6482 54.5274 25.3607C52.0642 26.7817 48.4917 28.235 44.3958 29.3717C40.2999 30.5083 36.4893 31.1039 33.6461 31.1555C32.2206 31.1813 31.0673 31.0697 30.2512 30.8376C29.4022 30.5961 29.0794 30.2744 29.0061 30.0102Z" stroke="current"/>
<path d="M29.5 29.465C29.5 29.1909 29.725 28.7946 30.4785 28.3349C31.2028 27.8929 32.2843 27.477 33.6648 27.1207C36.4183 26.4102 40.2493 25.965 44.5 25.965C48.7507 25.965 52.5817 26.4102 55.3352 27.1207C56.7157 27.477 57.7972 27.8929 58.5215 28.3349C59.275 28.7946 59.5 29.1909 59.5 29.465C59.5 29.7392 59.275 30.1355 58.5215 30.5952C57.7972 31.0371 56.7157 31.4531 55.3352 31.8093C52.5817 32.5199 48.7507 32.965 44.5 32.965C40.2493 32.965 36.4183 32.5199 33.6648 31.8093C32.2843 31.4531 31.2028 31.0371 30.4785 30.5952C29.725 30.1354 29.5 29.7392 29.5 29.465Z" stroke="current"/>
<path d="M30.0615 28.9176C30.1586 28.6613 30.5094 28.3704 31.3769 28.2075C32.2109 28.0509 33.3695 28.0451 34.7867 28.2011C37.6133 28.5123 41.3535 29.4535 45.3284 30.9596C49.3033 32.4657 52.7281 34.2394 55.0512 35.8795C56.2159 36.7018 57.0798 37.4739 57.6006 38.1438C58.1423 38.8407 58.2123 39.291 58.1151 39.5474C58.018 39.8037 57.6672 40.0946 56.7997 40.2575C55.9657 40.4141 54.8071 40.4199 53.3899 40.2639C50.5633 39.9527 46.8231 39.0116 42.8482 37.5054C38.8733 35.9993 35.4485 34.2256 33.1254 32.5855C31.9607 31.7632 31.0968 30.9911 30.576 30.3212C30.0343 29.6243 29.9643 29.174 30.0615 28.9176Z" stroke="current"/>
<path d="M29.6682 29.3105C29.8392 29.0963 30.2623 28.927 31.138 29.0378C31.9798 29.1443 33.0844 29.4939 34.3856 30.0768C36.9808 31.2393 40.2526 33.2815 43.5745 35.9335C46.8965 38.5854 49.6128 41.3234 51.3214 43.5966C52.1781 44.7363 52.7637 45.736 53.0541 46.5333C53.3561 47.3627 53.2847 47.8128 53.1137 48.027C52.9427 48.2413 52.5196 48.4106 51.6439 48.2998C50.8021 48.1933 49.6975 47.8436 48.3963 47.2608C45.8011 46.0982 42.5293 44.056 39.2074 41.4041C35.8854 38.7522 33.1691 36.0142 31.4605 33.741C30.6038 32.6013 30.0182 31.6015 29.7278 30.8042C29.4257 29.9749 29.4971 29.5248 29.6682 29.3105Z" stroke="current"/>
<path d="M29.7151 29.5194C29.936 29.357 30.3885 29.3037 31.2052 29.6386C31.9903 29.9606 32.9658 30.5857 34.0704 31.4871C36.2736 33.2851 38.901 36.1085 41.4182 39.5337C43.9354 42.9589 45.8454 46.3096 46.9034 48.9491C47.4338 50.2725 47.7391 51.3902 47.8119 52.2356C47.8877 53.1151 47.7016 53.531 47.4807 53.6934C47.2598 53.8557 46.8072 53.9091 45.9906 53.5742C45.2055 53.2522 44.2299 52.6271 43.1253 51.7257C40.9222 49.9277 38.2948 47.1042 35.7776 43.679C33.2604 40.2538 31.3504 36.9032 30.2924 34.2636C29.7619 32.9402 29.4567 31.8225 29.3838 30.9771C29.3081 30.0977 29.4942 29.6817 29.7151 29.5194Z" stroke="current"/>
<path d="M29.9898 29.0061C30.2539 28.9328 30.696 29.0436 31.3404 29.6467C31.96 30.2265 32.65 31.1574 33.3624 32.3923C34.7834 34.8556 36.2368 38.4281 37.3734 42.5239C38.5101 46.6198 39.1056 50.4304 39.1572 53.2736C39.1831 54.6991 39.0715 55.8524 38.8393 56.6685C38.5978 57.5175 38.2761 57.8403 38.012 57.9136C37.7478 57.9869 37.3058 57.8761 36.6613 57.273C36.0418 56.6932 35.3518 55.7623 34.6394 54.5274C33.2183 52.0642 31.765 48.4917 30.6283 44.3958C29.4917 40.2999 28.8962 36.4893 28.8446 33.6461C28.8187 32.2206 28.9303 31.0673 29.1624 30.2512C29.4039 29.4022 29.7256 29.0794 29.9898 29.0061Z" stroke="current"/>
<path d="M30 28.965C30.2741 28.965 30.6704 29.19 31.1302 29.9435C31.5721 30.6679 31.988 31.7493 32.3443 33.1298C33.0549 35.8833 33.5 39.7144 33.5 43.965C33.5 48.2157 33.0549 52.0467 32.3443 54.8002C31.988 56.1808 31.5721 57.2622 31.1302 57.9865C30.6704 58.74 30.2741 58.965 30 58.965C29.7259 58.965 29.3296 58.74 28.8698 57.9865C28.4279 57.2622 28.012 56.1808 27.6557 54.8002C26.9451 52.0467 26.5 48.2157 26.5 43.965C26.5 39.7144 26.9451 35.8833 27.6557 33.1298C28.012 31.7493 28.4279 30.6679 28.8698 29.9435C29.3296 29.19 29.7259 28.965 30 28.965Z" stroke="current"/>
</svg>
