<svg width="60" height="60" viewBox="0 0 60 60" fill="none" xmlns="http://www.w3.org/2000/svg">
<path d="M30 30C30 30.0041 29.9997 30.0166 29.9894 30.0428C29.9783 30.0711 29.9538 30.1189 29.9015 30.1848C29.7924 30.3224 29.5923 30.5012 29.2611 30.7033C28.5967 31.1087 27.5688 31.5096 26.2103 31.8601C23.5082 32.5575 19.7211 33 15.5 33C11.2789 33 7.49178 32.5575 4.78972 31.8601C3.43117 31.5096 2.40327 31.1087 1.73891 30.7033C1.40766 30.5012 1.20757 30.3224 1.09846 30.1848C1.04616 30.1189 1.0217 30.0711 1.01056 30.0428C1.00026 30.0166 1 30.0041 1 30C1 29.9959 1.00026 29.9834 1.01056 29.9572C1.0217 29.9289 1.04616 29.8811 1.09846 29.8152C1.20757 29.6776 1.40766 29.4988 1.73891 29.2967C2.40327 28.8913 3.43117 28.4904 4.78972 28.1399C7.49178 27.4425 11.2789 27 15.5 27C19.7211 27 23.5082 27.4425 26.2103 28.1399C27.5688 28.4904 28.5967 28.8913 29.2611 29.2967C29.5923 29.4988 29.7924 29.6776 29.9015 29.8152C29.9538 29.8811 29.9783 29.9289 29.9894 29.9572C29.9997 29.9834 30 29.9959 30 30Z" stroke="black" stroke-width="2"/>
<path d="M29.9411 29.8426C29.9385 29.8457 29.9305 29.8554 29.9061 29.8694C29.8798 29.8846 29.8308 29.9066 29.7488 29.9256C29.5777 29.965 29.3098 29.9799 28.9248 29.9312C28.1527 29.8335 27.0993 29.5055 25.8188 28.9319C23.2721 27.7911 20.0363 25.7743 16.7374 23.1408C13.4385 20.5073 10.7549 17.7988 9.07827 15.568C8.23526 14.4465 7.68204 13.4919 7.41572 12.7606C7.28294 12.396 7.23811 12.1314 7.23869 11.9558C7.23897 11.8717 7.24966 11.819 7.25861 11.79C7.26689 11.7631 7.27451 11.7531 7.27705 11.75C7.27958 11.7468 7.28761 11.7371 7.31199 11.7231C7.33835 11.7079 7.38728 11.6859 7.46931 11.6669C7.64042 11.6275 7.90835 11.6126 8.29331 11.6613C9.06541 11.759 10.1188 12.087 11.3993 12.6606C13.946 13.8014 17.1818 15.8182 20.4807 18.4517C23.7796 21.0852 26.4632 23.7937 28.1398 26.0245C28.9829 27.146 29.5361 28.1006 29.8024 28.8319C29.9352 29.1965 29.98 29.4611 29.9794 29.6367C29.9792 29.7209 29.9685 29.7735 29.9595 29.8025C29.9512 29.8294 29.9436 29.8394 29.9411 29.8426Z" stroke="black" stroke-width="2"/>
<path d="M29.8765 29.9771C29.8726 29.9782 29.8604 29.9813 29.8325 29.9784C29.8022 29.9752 29.7496 29.9644 29.6721 29.9317C29.5103 29.8633 29.2845 29.7184 29.0012 29.4532C28.433 28.9214 27.7718 28.0382 27.0707 26.8228C25.6762 24.4056 24.2371 20.8748 23.1084 16.8074C21.9796 12.74 21.3934 8.97246 21.3427 6.18234C21.3173 4.77951 21.4287 3.68184 21.6416 2.93328C21.7478 2.56005 21.8666 2.31943 21.97 2.17751C22.0195 2.10947 22.0591 2.07312 22.0833 2.05483C22.1058 2.0379 22.1178 2.03429 22.1217 2.03321C22.1257 2.03212 22.1378 2.02902 22.1658 2.03195C22.196 2.03511 22.2486 2.0459 22.3262 2.07866C22.4879 2.147 22.7137 2.29199 22.997 2.55713C23.5653 3.08891 24.2264 3.97218 24.9275 5.18751C26.322 7.60471 27.7611 11.1355 28.8899 15.203C30.0186 19.2704 30.6049 23.0379 30.6555 25.828C30.681 27.2308 30.5696 28.3285 30.3566 29.0771C30.2505 29.4503 30.1317 29.6909 30.0283 29.8328C29.9787 29.9009 29.9392 29.9372 29.9149 29.9555C29.8924 29.9725 29.8804 29.9761 29.8765 29.9771Z" stroke="black" stroke-width="2"/>
<path d="M29.0948 29.471C29.091 29.4695 29.0794 29.4649 29.0586 29.4459C29.036 29.4255 29 29.3857 28.9569 29.3134C28.8669 29.1626 28.7706 28.9122 28.6989 28.5308C28.5553 27.7659 28.5446 26.6627 28.6981 25.268C29.0035 22.4942 29.9315 18.796 31.4272 14.8487C32.9228 10.9014 34.6785 7.51687 36.288 5.23718C37.0972 4.09099 37.8363 3.27182 38.4507 2.79419C38.7571 2.55604 38.9952 2.43228 39.1625 2.37901C39.2427 2.35347 39.2961 2.34753 39.3265 2.34714C39.3546 2.34678 39.3664 2.35098 39.3702 2.35242C39.374 2.35386 39.3857 2.35855 39.4065 2.37746C39.429 2.3979 39.465 2.43771 39.5082 2.50999C39.5982 2.66076 39.6945 2.91123 39.7661 3.2926C39.9098 4.05748 39.9204 5.16074 39.7669 6.55537C39.4616 9.3292 38.5335 13.0274 37.0379 16.9747C35.5422 20.922 33.7866 24.3065 32.1771 26.5862C31.3679 27.7324 30.6288 28.5516 30.0143 29.0292C29.708 29.2674 29.4699 29.3911 29.3025 29.4444C29.2223 29.4699 29.169 29.4759 29.1386 29.4763C29.1104 29.4766 29.0986 29.4724 29.0948 29.471Z" stroke="black" stroke-width="2"/>
<path d="M29.9223 29.9888C29.9199 29.9856 29.9127 29.9753 29.9055 29.9481C29.8977 29.9187 29.8891 29.8657 29.8922 29.7816C29.8986 29.6061 29.954 29.3435 30.1012 28.9845C30.3965 28.2645 30.9874 27.3327 31.8745 26.2457C33.6389 24.0837 36.4284 21.4844 39.8298 18.9847C43.2312 16.485 46.5449 14.5989 49.1352 13.5607C50.4375 13.0387 51.5032 12.753 52.2786 12.6862C52.6652 12.6529 52.9323 12.6785 53.1017 12.7248C53.1829 12.7469 53.2309 12.771 53.2566 12.7872C53.2804 12.8022 53.2881 12.8121 53.2905 12.8154C53.2929 12.8187 53.3001 12.8289 53.3073 12.8561C53.3151 12.8855 53.3237 12.9385 53.3206 13.0226C53.3142 13.1981 53.2588 13.4607 53.1116 13.8197C52.8163 14.5398 52.2254 15.4715 51.3383 16.5585C49.5739 18.7205 46.7843 21.3198 43.383 23.8195C39.9816 26.3192 36.6679 28.2053 34.0776 29.2435C32.7753 29.7655 31.7096 30.0512 30.9342 30.118C30.5476 30.1513 30.2805 30.1257 30.1111 30.0795C30.0299 30.0573 29.9819 30.0333 29.9561 30.0171C29.9323 30.0021 29.9247 29.9921 29.9223 29.9888Z" stroke="black" stroke-width="2"/>
<path d="M30 29.465C30 29.461 30.0003 29.4484 30.0106 29.4222C30.0217 29.3939 30.0462 29.3462 30.0985 29.2802C30.2076 29.1426 30.4077 28.9638 30.7389 28.7617C31.4033 28.3563 32.4312 27.9555 33.7897 27.6049C36.4918 26.9076 40.2789 26.465 44.5 26.465C48.7211 26.465 52.5082 26.9076 55.2103 27.6049C56.5688 27.9555 57.5967 28.3564 58.2611 28.7617C58.5923 28.9638 58.7924 29.1426 58.9015 29.2802C58.9538 29.3462 58.9783 29.3939 58.9894 29.4222C58.9997 29.4484 59 29.461 59 29.465C59 29.4691 58.9997 29.4816 58.9894 29.5078C58.9783 29.5361 58.9538 29.5839 58.9015 29.6499C58.7924 29.7874 58.5923 29.9662 58.2611 30.1684C57.5967 30.5737 56.5688 30.9746 55.2103 31.3252C52.5082 32.0225 48.7211 32.465 44.5 32.465C40.2789 32.465 36.4918 32.0225 33.7897 31.3252C32.4312 30.9746 31.4033 30.5737 30.7389 30.1684C30.4077 29.9662 30.2076 29.7874 30.0985 29.6498C30.0462 29.5839 30.0217 29.5361 30.0106 29.5078C30.0003 29.4816 30 29.4691 30 29.465Z" stroke="black" stroke-width="2"/>
<path d="M30.0589 29.6225C30.0615 29.6193 30.0695 29.6097 30.0939 29.5956C30.1202 29.5805 30.1692 29.5584 30.2512 29.5395C30.4223 29.5 30.6902 29.4851 31.0752 29.5338C31.8473 29.6315 32.9007 29.9595 34.1812 30.5331C36.7279 31.6739 39.9637 33.6907 43.2626 36.3242C46.5615 38.9577 49.2451 41.6663 50.9217 43.897C51.7647 45.0186 52.318 45.9731 52.5843 46.7044C52.7171 47.069 52.7619 47.3336 52.7613 47.5092C52.761 47.5934 52.7503 47.646 52.7414 47.675C52.7331 47.7019 52.7255 47.7119 52.723 47.7151C52.7204 47.7182 52.7124 47.7279 52.688 47.7419C52.6617 47.7571 52.6127 47.7792 52.5307 47.7981C52.3596 47.8375 52.0917 47.8525 51.7067 47.8037C50.9346 47.706 49.8812 47.3781 48.6007 46.8045C46.054 45.6637 42.8182 43.6468 39.5193 41.0133C36.2204 38.3798 33.5368 35.6713 31.8602 33.4406C31.0171 32.319 30.4639 31.3644 30.1976 30.6331C30.0648 30.2685 30.02 30.0039 30.0206 29.8283C30.0209 29.7442 30.0315 29.6916 30.0405 29.6625C30.0488 29.6356 30.0564 29.6257 30.0589 29.6225Z" stroke="black" stroke-width="2"/>
<path d="M30.1235 29.4879C30.1274 29.4868 30.1396 29.4837 30.1675 29.4866C30.1978 29.4898 30.2504 29.5006 30.3279 29.5333C30.4897 29.6017 30.7155 29.7467 30.9988 30.0118C31.567 30.5436 32.2282 31.4269 32.9293 32.6422C34.3238 35.0594 35.7629 38.5902 36.8916 42.6576C38.0204 46.7251 38.6066 50.4926 38.6573 53.2827C38.6827 54.6855 38.5713 55.7832 38.3584 56.5317C38.2522 56.905 38.1334 57.1456 38.03 57.2875C37.9805 57.3556 37.9409 57.3919 37.9167 57.4102C37.8942 57.4271 37.8822 57.4307 37.8783 57.4318C37.8743 57.4329 37.8622 57.436 37.8342 57.4331C37.804 57.4299 37.7514 57.4191 37.6738 57.3864C37.5121 57.318 37.2863 57.173 37.003 56.9079C36.4347 56.3761 35.7736 55.4928 35.0725 54.2775C33.678 51.8603 32.2389 48.3295 31.1101 44.2621C29.9814 40.1946 29.3951 36.4271 29.3445 33.637C29.319 32.2342 29.4304 31.1365 29.6434 30.388C29.7495 30.0147 29.8683 29.7741 29.9717 29.6322C30.0213 29.5642 30.0608 29.5278 30.0851 29.5095C30.1076 29.4926 30.1196 29.489 30.1235 29.4879Z" stroke="black" stroke-width="2"/>
</svg>
